<svg version="1.1" xmlns="http://www.w3.org/2000/svg" xmlns:xlink="http://www.w3.org/1999/xlink"
    preserveAspectRatio="xMidYMid meet" viewBox="0 0 128 128" width="128" height="128">
    <defs>
        <path
            d="M118.96 95.62C101.34 126.11 62.38 136.54 31.88 118.96C1.39 101.34 -9.04 62.38 8.54 31.88C26.16 1.39 65.13 -9.04 95.62 8.54C126.11 26.16 136.54 65.12 118.96 95.62"
            id="a24oo2KODW"></path>
        <path
            d="M64.36 0C58.85 9.56 14.69 86.06 9.17 95.62C14.6 105.04 22.46 113.17 32.52 118.96C42.57 124.76 53.52 127.51 64.33 127.51C69.85 117.94 114.03 41.42 119.56 31.85C114.13 22.48 106.3 14.34 96.25 8.55C86.2 2.75 75.21 0 64.36 0Z"
            id="adpAFpKxB"></path>
        <path
            d="M77.9 125.85C82.6 117.76 120.15 53.04 124.85 44.95C123.83 41.76 123.16 39.28 120.75 36.02C120.75 36.02 67.96 127.39 67.96 127.24C71.28 127.06 74.63 126.57 77.9 125.85Z"
            id="cyKeVEpmg"></path>
        <path
            d="M63.81 127.44C67.05 127.44 70.25 127.17 73.45 126.68C78.42 118.06 118.21 49.13 123.18 40.51C122.01 37.5 120.62 34.6 119 31.81C119 31.81 69.33 117.87 63.81 127.44Z"
            id="f4Ti0Vgmm"></path>
        <path
            d="M64.36 0C61.13 0 57.93 0.26 54.73 0.75C49.75 9.37 9.97 78.28 5 86.89C6.16 89.9 7.56 92.8 9.17 95.59C20.21 76.47 53.33 19.12 64.36 0Z"
            id="cakID2eDYv"></path>
        <path
            d="M88.86 68.86C88.86 82.1 78.11 92.86 64.86 92.86C51.62 92.86 40.86 82.1 40.86 68.86C40.86 55.61 51.62 44.86 64.86 44.86C78.11 44.86 88.86 55.61 88.86 68.86Z"
            id="d98grYjhV"></path>
        <path
            d="M88 64C88 77.25 77.25 88 64 88C50.76 88 40 77.25 40 64C40 50.75 50.76 40 64 40C77.25 40 88 50.75 88 64Z"
            id="derZ509be"></path>
        <path
            d="M51.9 54.99C49.9 58.44 47.28 60.66 46.04 59.95C44.8 59.24 45.42 55.85 47.41 52.4C49.4 48.95 52.03 46.73 53.26 47.44C54.5 48.16 53.89 51.54 51.9 54.99Z"
            id="adY1JfFyA"></path>
    </defs>
    <g>
        <g>
            <g>
                <use xlink:href="#a24oo2KODW" opacity="1" fill="#683a74" fill-opacity="1"></use>
                <g>
                    <use xlink:href="#a24oo2KODW" opacity="1" fill-opacity="0" stroke="#000000"
                        stroke-width="1" stroke-opacity="0"></use>
                </g>
            </g>
            <g>
                <use xlink:href="#adpAFpKxB" opacity="1" fill="#999999" fill-opacity="1"></use>
                <g>
                    <use xlink:href="#adpAFpKxB" opacity="1" fill-opacity="0" stroke="#000000"
                        stroke-width="1" stroke-opacity="0"></use>
                </g>
            </g>
            <g>
                <use xlink:href="#cyKeVEpmg" opacity="1" fill="#000000" fill-opacity="1"></use>
                <g>
                    <use xlink:href="#cyKeVEpmg" opacity="1" fill-opacity="0" stroke="#000000"
                        stroke-width="1" stroke-opacity="0"></use>
                </g>
            </g>
            <g>
                <use xlink:href="#f4Ti0Vgmm" opacity="1" fill="#ffffff" fill-opacity="1"></use>
                <g>
                    <use xlink:href="#f4Ti0Vgmm" opacity="1" fill-opacity="0" stroke="#000000"
                        stroke-width="1" stroke-opacity="0"></use>
                </g>
            </g>
            <g>
                <use xlink:href="#cakID2eDYv" opacity="1" fill="#ffffff" fill-opacity="1"></use>
                <g>
                    <use xlink:href="#cakID2eDYv" opacity="1" fill-opacity="0" stroke="#000000"
                        stroke-width="1" stroke-opacity="0"></use>
                </g>
            </g>
            <g>
                <use xlink:href="#d98grYjhV" opacity="1" fill="#000000" fill-opacity="1"></use>
            </g>
            <g>
                <use xlink:href="#derZ509be" opacity="1" fill="#323333" fill-opacity="1"></use>
            </g>
            <g>
                <use xlink:href="#adY1JfFyA" opacity="1" fill="#ffffff" fill-opacity="1"></use>
            </g>
        </g>
    </g>
</svg>
